# xmcd CD database file
#
# Track frame offsets:
#	150
#	20207
#	41629
#	60721
#	75844
#	94029
#	108730
#	125176
#	144521
#	168677
#	189451
#	211334
#
# Disc length: 2999 seconds
#
# Revision: 0
# Processed by: cddbd v1.5.2PL0 Copyright (c) Steve Scherf et al.
# Submitted via: CDex 1.77
#
DISCID=ad0bb50c
DTITLE=Laurent de Wilde - New Monk Trio
DYEAR=2017
DGENRE=Jazz
TTITLE0=Misterioso
TTITLE1='Round Midnight
TTITLE2=Monk's Mood
TTITLE3=Thelonious
TTITLE4=Pannonica
TTITLE5=Tune for T
TTITLE6=Monk's Mix
TTITLE7=Four in One
TTITLE8=Reflections
TTITLE9=Coming on the Hudson
TTITLE10=Locomotive
TTITLE11=Friday the 13th
EXTD=YEAR: 2017
EXTT0=
EXTT1=
EXTT2=
EXTT3=
EXTT4=
EXTT5=
EXTT6=
EXTT7=
EXTT8=
EXTT9=
EXTT10=
EXTT11=
PLAYORDER=
